<svg width="16" height="20" viewBox="0 0 16 20" fill="none" xmlns="http://www.w3.org/2000/svg">
<path d="M8.00061 12.0005C10.2067 12.0005 12.0009 10.2064 12.0009 8.00025C12.0009 5.79411 10.2067 4 8.00061 4C5.79448 4 4.00037 5.79411 4.00037 8.00025C4.00037 10.2064 5.79448 12.0005 8.00061 12.0005ZM8.00061 6.00012C9.10368 6.00012 10.0007 6.89718 10.0007 8.00025C10.0007 9.10331 9.10368 10.0004 8.00061 10.0004C6.89754 10.0004 6.00049 9.10331 6.00049 8.00025C6.00049 6.89718 6.89754 6.00012 8.00061 6.00012Z" fill="#757575"/>
<path d="M7.42054 19.8152C7.58992 19.9358 7.79266 20.0006 8.00058 20.0006C8.2085 20.0006 8.41124 19.9358 8.58061 19.8152C8.88463 19.6002 16.0301 14.4409 16.0011 8.00049C16.0011 3.58922 12.4118 0 8.00058 0C3.58931 0 8.80431e-05 3.58922 8.80431e-05 7.99549C-0.0289137 14.4409 7.11653 19.6002 7.42054 19.8152ZM8.00058 2.00012C11.3098 2.00012 14.0009 4.69129 14.0009 8.00549C14.0219 12.4438 9.61268 16.429 8.00058 17.7361C6.38948 16.428 1.97921 12.4418 2.00021 8.00049C2.00021 4.69129 4.69138 2.00012 8.00058 2.00012Z" fill="#757575"/>
</svg>
