<svg width="21" height="12" viewBox="0 0 21 12" fill="none" xmlns="http://www.w3.org/2000/svg">
<path d="M4.66667 2.4V0H21V2.4H4.66667ZM4.66667 7.19999V4.79999H21V7.19999H4.66667ZM4.66667 12V9.59999H21V12H4.66667ZM1.16667 2.4C0.836115 2.4 0.559226 2.2848 0.336004 2.0544C0.112782 1.824 0.000781801 1.5392 4.02298e-06 1.2C-0.000773755 0.860799 0.111226 0.575999 0.336004 0.3456C0.560782 0.1152 0.837671 0 1.16667 0C1.49567 0 1.77295 0.1152 1.9985 0.3456C2.22406 0.575999 2.33567 0.860799 2.33334 1.2C2.331 1.5392 2.219 1.8244 1.99734 2.0556C1.77567 2.2868 1.49878 2.4016 1.16667 2.4ZM1.16667 7.19999C0.836115 7.19999 0.559226 7.08479 0.336004 6.85439C0.112782 6.62399 0.000781801 6.33919 4.02298e-06 5.99999C-0.000773755 5.66079 0.111226 5.37599 0.336004 5.14559C0.560782 4.91519 0.837671 4.79999 1.16667 4.79999C1.49567 4.79999 1.77295 4.91519 1.9985 5.14559C2.22406 5.37599 2.33567 5.66079 2.33334 5.99999C2.331 6.33919 2.219 6.62439 1.99734 6.85559C1.77567 7.08679 1.49878 7.20159 1.16667 7.19999ZM1.16667 12C0.836115 12 0.559226 11.8848 0.336004 11.6544C0.112782 11.424 0.000781801 11.1392 4.02298e-06 10.8C-0.000773755 10.4608 0.111226 10.176 0.336004 9.94559C0.560782 9.71519 0.837671 9.59999 1.16667 9.59999C1.49567 9.59999 1.77295 9.71519 1.9985 9.94559C2.22406 10.176 2.33567 10.4608 2.33334 10.8C2.331 11.1392 2.219 11.4244 1.99734 11.6556C1.77567 11.8868 1.49878 12.0016 1.16667 12Z" fill="#757575"/>
</svg>
