<svg width="23" height="23" viewBox="0 0 23 23" fill="none" xmlns="http://www.w3.org/2000/svg">
<path d="M2.45939 2.87523H2.46054V1.95063C2.46054 1.8451 2.50246 1.7439 2.57708 1.66928C2.6517 1.59466 2.75291 1.55273 2.85844 1.55273H10.4188L16.387 7.52123V8.72575H16.3838C16.376 8.82508 16.331 8.91781 16.2579 8.98549C16.1847 9.05317 16.0888 9.09083 15.9891 9.09099H14.4964C14.2878 9.09099 14.1188 8.92999 14.1018 8.72575H14.0969V8.31703H10.0206C9.91511 8.31703 9.8139 8.27511 9.73928 8.20049C9.66466 8.12587 9.62274 8.02466 9.62274 7.91914V3.84284H4.7495V19.1579H14.0972V18.4651H14.0988C14.0989 18.3596 14.1409 18.2586 14.2155 18.184C14.2901 18.1095 14.3912 18.0677 14.4967 18.0677H15.9894C16.0948 18.0677 16.196 18.1095 16.2706 18.184C16.3452 18.2586 16.3871 18.3596 16.3873 18.4651V21.0501C16.3873 21.2699 16.2092 21.448 15.9894 21.448H2.8589C2.75337 21.448 2.65216 21.406 2.57754 21.3314C2.50292 21.2568 2.461 21.1556 2.461 21.0501V20.487H2.45985L2.45939 2.87523Z" fill="#757575"/>
<path d="M11.96 13.4678C11.96 11.6191 13.4856 10.1201 15.3692 10.1201C17.2528 10.1201 18.7784 11.6191 18.7784 13.4678C18.7784 14.0925 18.6009 14.6755 18.2974 15.176L19.9605 16.8089L19.9539 16.8154C20.0453 16.9017 20.1178 17.0054 20.167 17.1201C20.2162 17.2349 20.241 17.3583 20.24 17.4828C20.24 17.9975 19.8224 18.4001 19.2987 18.4001C19.1728 18.4007 19.048 18.3766 18.9317 18.329C18.8154 18.2815 18.7101 18.2116 18.6218 18.1235L18.6171 18.128L16.9095 16.4514C16.4326 16.6906 15.9047 16.8153 15.3692 16.8152C13.4856 16.815 11.96 15.3164 11.96 13.4678ZM17.3479 13.4676C17.3478 12.9523 17.1392 12.4581 16.7681 12.0938C16.397 11.7295 15.8938 11.5248 15.369 11.5247C15.1091 11.5247 14.8518 11.5749 14.6117 11.6725C14.3716 11.7702 14.1535 11.9133 13.9698 12.0937C13.786 12.2741 13.6403 12.4883 13.5408 12.724C13.4414 12.9598 13.3903 13.2124 13.3903 13.4676C13.3902 13.7227 13.4414 13.9754 13.5408 14.2111C13.6402 14.4469 13.7859 14.6611 13.9697 14.8415C14.1534 15.022 14.3716 15.1651 14.6117 15.2628C14.8518 15.3604 15.1091 15.4106 15.369 15.4106C15.6289 15.4107 15.8862 15.3604 16.1263 15.2628C16.3665 15.1652 16.5846 15.0221 16.7684 14.8416C16.9522 14.6612 17.0979 14.447 17.1974 14.2112C17.2968 13.9754 17.3479 13.7227 17.3479 13.4676Z" fill="#757575"/>
</svg>
