<svg width="17" height="19" viewBox="0 0 17 19" fill="none" xmlns="http://www.w3.org/2000/svg">
<path d="M2.125 16.8286H5.3125V11.4C5.3125 11.0924 5.4145 10.8347 5.6185 10.627C5.8225 10.4192 6.07466 10.315 6.375 10.3143H10.625C10.926 10.3143 11.1786 10.4185 11.3826 10.627C11.5866 10.8354 11.6882 11.0931 11.6875 11.4V16.8286H14.875V7.05714L8.5 2.17143L2.125 7.05714V16.8286ZM0 16.8286V7.05714C0 6.71333 0.0754373 6.38762 0.226312 6.08C0.377187 5.77238 0.585083 5.51905 0.85 5.32L7.225 0.434286C7.59687 0.144762 8.02187 0 8.5 0C8.97812 0 9.40312 0.144762 9.775 0.434286L16.15 5.32C16.4156 5.51905 16.6239 5.77238 16.7747 6.08C16.9256 6.38762 17.0007 6.71333 17 7.05714V16.8286C17 17.4257 16.7917 17.9371 16.3752 18.3627C15.9587 18.7883 15.4587 19.0007 14.875 19H10.625C10.324 19 10.0718 18.8958 9.8685 18.6873C9.66521 18.4789 9.56321 18.2212 9.5625 17.9143V12.4857H7.4375V17.9143C7.4375 18.2219 7.3355 18.4799 7.1315 18.6884C6.9275 18.8969 6.67533 19.0007 6.375 19H2.125C1.54062 19 1.04054 18.7876 0.62475 18.3627C0.208958 17.9378 0.000708333 17.4264 0 16.8286Z" fill="#757575"/>
</svg>
